<mxfile host="app.diagrams.net" modified="2022-01-25T01:35:27.547Z" agent="5.0 (Windows NT 10.0; WOW64) AppleWebKit/537.36 (KHTML, like Gecko) Chrome/88.0.4324.182 Safari/537.36" etag="Q_smpPbW8h5CDYw6B9d_" version="16.4.5" type="github">
  <diagram id="qINzFhqbTE6yxvJxC4iN" name="Page-1">
    <mxGraphModel dx="2249" dy="762" grid="1" gridSize="10" guides="1" tooltips="1" connect="1" arrows="1" fold="1" page="1" pageScale="1" pageWidth="827" pageHeight="1169" math="0" shadow="0">
      <root>
        <mxCell id="0" />
        <mxCell id="1" parent="0" />
        <mxCell id="IOZMn-XIOWkaTDg5bGpa-5" value="队列中" style="rounded=1;whiteSpace=wrap;html=1;sketch=1;fillColor=#1FCBFF;" parent="1" vertex="1">
          <mxGeometry x="180" y="90" width="120" height="60" as="geometry" />
        </mxCell>
        <mxCell id="IOZMn-XIOWkaTDg5bGpa-32" value="" style="edgeStyle=orthogonalEdgeStyle;rounded=0;orthogonalLoop=1;jettySize=auto;html=1;exitX=0;exitY=0.5;exitDx=0;exitDy=0;" parent="1" source="IOZMn-XIOWkaTDg5bGpa-6" target="IOZMn-XIOWkaTDg5bGpa-31" edge="1">
          <mxGeometry relative="1" as="geometry">
            <mxPoint x="33" y="410" as="sourcePoint" />
            <Array as="points">
              <mxPoint x="-32" y="390" />
            </Array>
          </mxGeometry>
        </mxCell>
        <mxCell id="IOZMn-XIOWkaTDg5bGpa-6" value="进行中" style="rounded=1;whiteSpace=wrap;html=1;sketch=1;fillColor=#1FCBFF;" parent="1" vertex="1">
          <mxGeometry x="180" y="360" width="120" height="60" as="geometry" />
        </mxCell>
        <mxCell id="IOZMn-XIOWkaTDg5bGpa-16" value="开始" style="ellipse;whiteSpace=wrap;html=1;rounded=1;sketch=1;fillColor=#2EFF1F;" parent="1" vertex="1">
          <mxGeometry x="-50" y="230" width="120" height="60" as="geometry" />
        </mxCell>
        <mxCell id="IOZMn-XIOWkaTDg5bGpa-20" value="" style="endArrow=classic;html=1;rounded=0;entryX=0;entryY=1;entryDx=0;entryDy=0;exitX=1;exitY=0;exitDx=0;exitDy=0;" parent="1" source="IOZMn-XIOWkaTDg5bGpa-16" target="IOZMn-XIOWkaTDg5bGpa-5" edge="1">
          <mxGeometry width="50" height="50" relative="1" as="geometry">
            <mxPoint x="130" y="230" as="sourcePoint" />
            <mxPoint x="180" y="180" as="targetPoint" />
          </mxGeometry>
        </mxCell>
        <mxCell id="IOZMn-XIOWkaTDg5bGpa-21" value="" style="endArrow=classic;html=1;rounded=0;exitX=1;exitY=1;exitDx=0;exitDy=0;entryX=0;entryY=0;entryDx=0;entryDy=0;" parent="1" source="IOZMn-XIOWkaTDg5bGpa-16" target="IOZMn-XIOWkaTDg5bGpa-6" edge="1">
          <mxGeometry width="50" height="50" relative="1" as="geometry">
            <mxPoint x="130" y="340" as="sourcePoint" />
            <mxPoint x="180" y="290" as="targetPoint" />
          </mxGeometry>
        </mxCell>
        <mxCell id="IOZMn-XIOWkaTDg5bGpa-28" value="" style="endArrow=classic;html=1;rounded=0;exitX=0.5;exitY=1;exitDx=0;exitDy=0;entryX=0.5;entryY=0;entryDx=0;entryDy=0;" parent="1" source="IOZMn-XIOWkaTDg5bGpa-5" target="IOZMn-XIOWkaTDg5bGpa-6" edge="1">
          <mxGeometry width="50" height="50" relative="1" as="geometry">
            <mxPoint x="270" y="420" as="sourcePoint" />
            <mxPoint x="330" y="370" as="targetPoint" />
          </mxGeometry>
        </mxCell>
        <mxCell id="IOZMn-XIOWkaTDg5bGpa-46" value="" style="edgeStyle=orthogonalEdgeStyle;rounded=0;orthogonalLoop=1;jettySize=auto;html=1;" parent="1" source="IOZMn-XIOWkaTDg5bGpa-31" target="IOZMn-XIOWkaTDg5bGpa-45" edge="1">
          <mxGeometry relative="1" as="geometry" />
        </mxCell>
        <mxCell id="IOZMn-XIOWkaTDg5bGpa-48" value="" style="edgeStyle=orthogonalEdgeStyle;rounded=0;orthogonalLoop=1;jettySize=auto;html=1;" parent="1" source="IOZMn-XIOWkaTDg5bGpa-31" target="IOZMn-XIOWkaTDg5bGpa-47" edge="1">
          <mxGeometry relative="1" as="geometry" />
        </mxCell>
        <mxCell id="IOZMn-XIOWkaTDg5bGpa-50" value="" style="edgeStyle=orthogonalEdgeStyle;rounded=0;orthogonalLoop=1;jettySize=auto;html=1;" parent="1" source="IOZMn-XIOWkaTDg5bGpa-31" target="IOZMn-XIOWkaTDg5bGpa-49" edge="1">
          <mxGeometry relative="1" as="geometry" />
        </mxCell>
        <mxCell id="IOZMn-XIOWkaTDg5bGpa-31" value="合成中" style="whiteSpace=wrap;html=1;fillColor=#b0e3e6;rounded=1;sketch=1;strokeColor=#0e8088;" parent="1" vertex="1">
          <mxGeometry x="-93" y="500" width="120" height="60" as="geometry" />
        </mxCell>
        <mxCell id="IOZMn-XIOWkaTDg5bGpa-39" value="" style="edgeStyle=orthogonalEdgeStyle;rounded=0;orthogonalLoop=1;jettySize=auto;html=1;" parent="1" source="IOZMn-XIOWkaTDg5bGpa-33" target="IOZMn-XIOWkaTDg5bGpa-38" edge="1">
          <mxGeometry relative="1" as="geometry" />
        </mxCell>
        <mxCell id="IOZMn-XIOWkaTDg5bGpa-33" value="取消中" style="whiteSpace=wrap;html=1;fillColor=#fad7ac;rounded=1;sketch=1;strokeColor=#b46504;" parent="1" vertex="1">
          <mxGeometry x="390" y="200" width="120" height="60" as="geometry" />
        </mxCell>
        <mxCell id="IOZMn-XIOWkaTDg5bGpa-35" value="取消任务" style="text;html=1;align=center;verticalAlign=middle;resizable=0;points=[];autosize=1;strokeColor=none;fillColor=none;" parent="1" vertex="1">
          <mxGeometry x="420" y="100" width="60" height="20" as="geometry" />
        </mxCell>
        <mxCell id="IOZMn-XIOWkaTDg5bGpa-36" value="" style="endArrow=classic;html=1;rounded=0;exitX=1;exitY=0;exitDx=0;exitDy=0;" parent="1" source="IOZMn-XIOWkaTDg5bGpa-6" edge="1">
          <mxGeometry width="50" height="50" relative="1" as="geometry">
            <mxPoint x="270" y="410" as="sourcePoint" />
            <mxPoint x="390" y="260" as="targetPoint" />
          </mxGeometry>
        </mxCell>
        <mxCell id="IOZMn-XIOWkaTDg5bGpa-37" value="取消任务" style="text;html=1;align=center;verticalAlign=middle;resizable=0;points=[];autosize=1;strokeColor=none;fillColor=none;rotation=-50;" parent="1" vertex="1">
          <mxGeometry x="323" y="308" width="60" height="20" as="geometry" />
        </mxCell>
        <mxCell id="IOZMn-XIOWkaTDg5bGpa-103" value="" style="edgeStyle=orthogonalEdgeStyle;rounded=0;orthogonalLoop=1;jettySize=auto;html=1;fontColor=#000000;" parent="1" source="IOZMn-XIOWkaTDg5bGpa-38" target="IOZMn-XIOWkaTDg5bGpa-102" edge="1">
          <mxGeometry relative="1" as="geometry" />
        </mxCell>
        <mxCell id="IOZMn-XIOWkaTDg5bGpa-38" value="已取消" style="whiteSpace=wrap;html=1;fillColor=#e3c800;strokeColor=#B09500;fontColor=#000000;rounded=1;sketch=1;" parent="1" vertex="1">
          <mxGeometry x="560" y="90" width="120" height="60" as="geometry" />
        </mxCell>
        <mxCell id="IOZMn-XIOWkaTDg5bGpa-40" value="取消成功" style="text;html=1;align=center;verticalAlign=middle;resizable=0;points=[];autosize=1;strokeColor=none;fillColor=none;" parent="1" vertex="1">
          <mxGeometry x="560" y="210" width="60" height="20" as="geometry" />
        </mxCell>
        <mxCell id="IOZMn-XIOWkaTDg5bGpa-41" value="&lt;span&gt;数据对象任务&lt;br&gt;结束后被唤起&lt;/span&gt;" style="text;html=1;align=center;verticalAlign=middle;resizable=0;points=[];autosize=1;strokeColor=none;fillColor=none;" parent="1" vertex="1">
          <mxGeometry x="240" y="230" width="90" height="30" as="geometry" />
        </mxCell>
        <mxCell id="IOZMn-XIOWkaTDg5bGpa-43" value="" style="endArrow=classic;html=1;rounded=0;entryX=0;entryY=0.5;entryDx=0;entryDy=0;exitX=1;exitY=0.5;exitDx=0;exitDy=0;" parent="1" source="IOZMn-XIOWkaTDg5bGpa-5" target="IOZMn-XIOWkaTDg5bGpa-38" edge="1">
          <mxGeometry width="50" height="50" relative="1" as="geometry">
            <mxPoint x="270" y="400" as="sourcePoint" />
            <mxPoint x="320" y="350" as="targetPoint" />
          </mxGeometry>
        </mxCell>
        <mxCell id="IOZMn-XIOWkaTDg5bGpa-44" value="Oracle数据源特有，其&lt;br&gt;他数据源跳过这个过程" style="text;html=1;align=center;verticalAlign=middle;resizable=0;points=[];autosize=1;strokeColor=none;fillColor=none;" parent="1" vertex="1">
          <mxGeometry x="-33" y="405" width="140" height="30" as="geometry" />
        </mxCell>
        <mxCell id="IOZMn-XIOWkaTDg5bGpa-45" value="&lt;font color=&quot;#000000&quot;&gt;成功&lt;/font&gt;" style="whiteSpace=wrap;html=1;fillColor=#008a00;rounded=1;sketch=1;strokeColor=#005700;fontColor=#ffffff;" parent="1" vertex="1">
          <mxGeometry x="-263" y="620" width="120" height="60" as="geometry" />
        </mxCell>
        <mxCell id="IOZMn-XIOWkaTDg5bGpa-47" value="&lt;span&gt;	&lt;/span&gt;完成" style="whiteSpace=wrap;html=1;fillColor=#ffe6cc;rounded=1;sketch=1;strokeColor=#d79b00;" parent="1" vertex="1">
          <mxGeometry x="-93" y="620" width="120" height="60" as="geometry" />
        </mxCell>
        <mxCell id="IOZMn-XIOWkaTDg5bGpa-49" value="&lt;font color=&quot;#000000&quot; style=&quot;font-size: 11px&quot;&gt;失败&lt;/font&gt;" style="whiteSpace=wrap;html=1;fillColor=#a20025;rounded=1;sketch=1;fontColor=#ffffff;strokeColor=#6F0000;" parent="1" vertex="1">
          <mxGeometry x="81" y="620" width="120" height="60" as="geometry" />
        </mxCell>
        <mxCell id="IOZMn-XIOWkaTDg5bGpa-55" value="" style="edgeStyle=orthogonalEdgeStyle;rounded=0;orthogonalLoop=1;jettySize=auto;html=1;fontColor=#000000;" parent="1" source="IOZMn-XIOWkaTDg5bGpa-51" target="IOZMn-XIOWkaTDg5bGpa-54" edge="1">
          <mxGeometry relative="1" as="geometry" />
        </mxCell>
        <mxCell id="IOZMn-XIOWkaTDg5bGpa-51" value="&lt;span&gt;	&lt;/span&gt;暂停中" style="rounded=1;whiteSpace=wrap;html=1;sketch=1;fillColor=#bac8d3;strokeColor=#23445d;" parent="1" vertex="1">
          <mxGeometry x="540" y="360" width="120" height="60" as="geometry" />
        </mxCell>
        <mxCell id="IOZMn-XIOWkaTDg5bGpa-54" value="已暂停" style="rounded=1;whiteSpace=wrap;html=1;sketch=1;fillColor=#778087;strokeColor=#23445d;gradientColor=none;" parent="1" vertex="1">
          <mxGeometry x="540" y="555" width="120" height="60" as="geometry" />
        </mxCell>
        <mxCell id="IOZMn-XIOWkaTDg5bGpa-61" value="" style="endArrow=classic;html=1;rounded=0;fontColor=#000000;entryX=0;entryY=0.717;entryDx=0;entryDy=0;entryPerimeter=0;" parent="1" edge="1">
          <mxGeometry width="50" height="50" relative="1" as="geometry">
            <mxPoint x="304" y="403" as="sourcePoint" />
            <mxPoint x="539" y="403.02" as="targetPoint" />
          </mxGeometry>
        </mxCell>
        <mxCell id="IOZMn-XIOWkaTDg5bGpa-62" value="" style="endArrow=classic;html=1;rounded=0;fontColor=#000000;entryX=1;entryY=1;entryDx=0;entryDy=0;exitX=0;exitY=0;exitDx=0;exitDy=0;" parent="1" source="IOZMn-XIOWkaTDg5bGpa-54" target="IOZMn-XIOWkaTDg5bGpa-6" edge="1">
          <mxGeometry width="50" height="50" relative="1" as="geometry">
            <mxPoint x="270" y="570" as="sourcePoint" />
            <mxPoint x="320" y="520" as="targetPoint" />
          </mxGeometry>
        </mxCell>
        <mxCell id="IOZMn-XIOWkaTDg5bGpa-65" value="暂停成功" style="text;html=1;align=center;verticalAlign=middle;resizable=0;points=[];autosize=1;strokeColor=none;fillColor=none;fontColor=#000000;" parent="1" vertex="1">
          <mxGeometry x="600" y="471" width="60" height="20" as="geometry" />
        </mxCell>
        <mxCell id="IOZMn-XIOWkaTDg5bGpa-66" value="开始任务" style="text;html=1;align=center;verticalAlign=middle;resizable=0;points=[];autosize=1;strokeColor=none;fillColor=none;fontColor=#000000;rotation=30;" parent="1" vertex="1">
          <mxGeometry x="411" y="475" width="60" height="20" as="geometry" />
        </mxCell>
        <mxCell id="IOZMn-XIOWkaTDg5bGpa-67" value="已删除" style="whiteSpace=wrap;html=1;fillColor=#fad9d5;rounded=1;sketch=1;strokeColor=#ae4132;" parent="1" vertex="1">
          <mxGeometry x="-93" y="755" width="120" height="60" as="geometry" />
        </mxCell>
        <mxCell id="IOZMn-XIOWkaTDg5bGpa-69" value="" style="endArrow=classic;html=1;rounded=0;fontColor=#000000;exitX=1;exitY=0.5;exitDx=0;exitDy=0;entryX=0.5;entryY=1;entryDx=0;entryDy=0;" parent="1" source="IOZMn-XIOWkaTDg5bGpa-67" target="IOZMn-XIOWkaTDg5bGpa-49" edge="1">
          <mxGeometry width="50" height="50" relative="1" as="geometry">
            <mxPoint x="87" y="840" as="sourcePoint" />
            <mxPoint x="147" y="798" as="targetPoint" />
            <Array as="points">
              <mxPoint x="141" y="785" />
            </Array>
          </mxGeometry>
        </mxCell>
        <mxCell id="IOZMn-XIOWkaTDg5bGpa-70" value="" style="endArrow=classic;html=1;rounded=0;fontColor=#000000;entryX=0.5;entryY=1;entryDx=0;entryDy=0;exitX=0;exitY=0.5;exitDx=0;exitDy=0;" parent="1" source="IOZMn-XIOWkaTDg5bGpa-67" target="IOZMn-XIOWkaTDg5bGpa-45" edge="1">
          <mxGeometry width="50" height="50" relative="1" as="geometry">
            <mxPoint x="-203" y="780" as="sourcePoint" />
            <mxPoint x="-173" y="690" as="targetPoint" />
            <Array as="points">
              <mxPoint x="-203" y="785" />
            </Array>
          </mxGeometry>
        </mxCell>
        <mxCell id="IOZMn-XIOWkaTDg5bGpa-71" value="恢复已删除数据" style="text;html=1;align=center;verticalAlign=middle;resizable=0;points=[];autosize=1;strokeColor=none;fillColor=none;fontColor=#000000;" parent="1" vertex="1">
          <mxGeometry x="40" y="765" width="100" height="20" as="geometry" />
        </mxCell>
        <mxCell id="IOZMn-XIOWkaTDg5bGpa-72" value="恢复已删除数据" style="text;html=1;align=center;verticalAlign=middle;resizable=0;points=[];autosize=1;strokeColor=none;fillColor=none;fontColor=#000000;" parent="1" vertex="1">
          <mxGeometry x="-203" y="765" width="100" height="20" as="geometry" />
        </mxCell>
        <mxCell id="IOZMn-XIOWkaTDg5bGpa-73" value="" style="endArrow=classic;startArrow=classic;html=1;rounded=0;fontColor=#000000;entryX=0.5;entryY=1;entryDx=0;entryDy=0;exitX=0.5;exitY=0;exitDx=0;exitDy=0;" parent="1" source="IOZMn-XIOWkaTDg5bGpa-67" target="IOZMn-XIOWkaTDg5bGpa-47" edge="1">
          <mxGeometry width="50" height="50" relative="1" as="geometry">
            <mxPoint x="-53" y="750" as="sourcePoint" />
            <mxPoint x="-3" y="700" as="targetPoint" />
          </mxGeometry>
        </mxCell>
        <mxCell id="IOZMn-XIOWkaTDg5bGpa-74" value="删除任务" style="text;html=1;align=center;verticalAlign=middle;resizable=0;points=[];autosize=1;strokeColor=none;fillColor=none;fontColor=#000000;" parent="1" vertex="1">
          <mxGeometry x="-93" y="705" width="60" height="20" as="geometry" />
        </mxCell>
        <mxCell id="IOZMn-XIOWkaTDg5bGpa-75" value="恢复已删除数据" style="text;html=1;align=center;verticalAlign=middle;resizable=0;points=[];autosize=1;strokeColor=none;fillColor=none;fontColor=#000000;" parent="1" vertex="1">
          <mxGeometry x="-33" y="705" width="100" height="20" as="geometry" />
        </mxCell>
        <mxCell id="IOZMn-XIOWkaTDg5bGpa-79" value="暂停任务" style="text;html=1;align=center;verticalAlign=middle;resizable=0;points=[];autosize=1;strokeColor=none;fillColor=none;fontColor=#000000;rotation=0;" parent="1" vertex="1">
          <mxGeometry x="390" y="410" width="60" height="20" as="geometry" />
        </mxCell>
        <mxCell id="IOZMn-XIOWkaTDg5bGpa-81" value="合成失败" style="text;html=1;align=center;verticalAlign=middle;resizable=0;points=[];autosize=1;strokeColor=none;fillColor=none;fontColor=#000000;" parent="1" vertex="1">
          <mxGeometry x="81" y="575" width="60" height="20" as="geometry" />
        </mxCell>
        <mxCell id="IOZMn-XIOWkaTDg5bGpa-83" value="合成成功" style="text;html=1;align=center;verticalAlign=middle;resizable=0;points=[];autosize=1;strokeColor=none;fillColor=none;fontColor=#000000;" parent="1" vertex="1">
          <mxGeometry x="-203" y="575" width="60" height="20" as="geometry" />
        </mxCell>
        <mxCell id="IOZMn-XIOWkaTDg5bGpa-84" value="合成完成" style="text;html=1;align=center;verticalAlign=middle;resizable=0;points=[];autosize=1;strokeColor=none;fillColor=none;fontColor=#000000;" parent="1" vertex="1">
          <mxGeometry x="-33" y="575" width="60" height="20" as="geometry" />
        </mxCell>
        <mxCell id="IOZMn-XIOWkaTDg5bGpa-87" value="&lt;font color=&quot;#000000&quot;&gt;重试等待中&lt;/font&gt;" style="rounded=1;whiteSpace=wrap;html=1;sketch=1;fillColor=#a0522d;fontColor=#ffffff;strokeColor=#6D1F00;" parent="1" vertex="1">
          <mxGeometry x="180" y="500" width="120" height="60" as="geometry" />
        </mxCell>
        <mxCell id="IOZMn-XIOWkaTDg5bGpa-92" value="" style="endArrow=classic;startArrow=classic;html=1;rounded=0;fontColor=#000000;entryX=0.5;entryY=1;entryDx=0;entryDy=0;exitX=0.5;exitY=0;exitDx=0;exitDy=0;" parent="1" source="IOZMn-XIOWkaTDg5bGpa-87" target="IOZMn-XIOWkaTDg5bGpa-6" edge="1">
          <mxGeometry width="50" height="50" relative="1" as="geometry">
            <mxPoint x="220" y="480" as="sourcePoint" />
            <mxPoint x="270" y="430" as="targetPoint" />
          </mxGeometry>
        </mxCell>
        <mxCell id="IOZMn-XIOWkaTDg5bGpa-93" value="内部失败后自动重试" style="text;html=1;align=center;verticalAlign=middle;resizable=0;points=[];autosize=1;strokeColor=none;fillColor=none;fontColor=#000000;" parent="1" vertex="1">
          <mxGeometry x="120" y="450" width="120" height="20" as="geometry" />
        </mxCell>
        <mxCell id="IOZMn-XIOWkaTDg5bGpa-94" value="重试等待后重新&lt;br&gt;进入运行状态&amp;nbsp; &amp;nbsp;&amp;nbsp;" style="text;html=1;align=center;verticalAlign=middle;resizable=0;points=[];autosize=1;strokeColor=none;fillColor=none;fontColor=#000000;" parent="1" vertex="1">
          <mxGeometry x="241" y="445" width="100" height="30" as="geometry" />
        </mxCell>
        <mxCell id="IOZMn-XIOWkaTDg5bGpa-95" value="暂停失败" style="rounded=1;whiteSpace=wrap;html=1;sketch=1;fillColor=#bac8d3;strokeColor=#23445d;" parent="1" vertex="1">
          <mxGeometry x="760" y="360" width="120" height="60" as="geometry" />
        </mxCell>
        <mxCell id="IOZMn-XIOWkaTDg5bGpa-102" value="取消失败" style="whiteSpace=wrap;html=1;fillColor=#e3c800;strokeColor=#B09500;fontColor=#000000;rounded=1;sketch=1;" parent="1" vertex="1">
          <mxGeometry x="760" y="90" width="120" height="60" as="geometry" />
        </mxCell>
        <mxCell id="IOZMn-XIOWkaTDg5bGpa-104" value="" style="endArrow=classic;html=1;rounded=0;fontColor=#000000;exitX=0.5;exitY=1;exitDx=0;exitDy=0;entryX=1.008;entryY=0.15;entryDx=0;entryDy=0;entryPerimeter=0;" parent="1" source="IOZMn-XIOWkaTDg5bGpa-102" target="IOZMn-XIOWkaTDg5bGpa-6" edge="1">
          <mxGeometry width="50" height="50" relative="1" as="geometry">
            <mxPoint x="270" y="390" as="sourcePoint" />
            <mxPoint x="410" y="360" as="targetPoint" />
            <Array as="points">
              <mxPoint x="820" y="280" />
              <mxPoint x="440" y="280" />
              <mxPoint x="440" y="369" />
            </Array>
          </mxGeometry>
        </mxCell>
        <mxCell id="IOZMn-XIOWkaTDg5bGpa-105" value="" style="endArrow=classic;html=1;rounded=0;fontColor=#000000;exitX=0.5;exitY=0;exitDx=0;exitDy=0;entryX=1.017;entryY=0.383;entryDx=0;entryDy=0;entryPerimeter=0;" parent="1" source="IOZMn-XIOWkaTDg5bGpa-95" edge="1">
          <mxGeometry width="50" height="50" relative="1" as="geometry">
            <mxPoint x="828.04" y="364" as="sourcePoint" />
            <mxPoint x="302.03999999999996" y="386.98" as="targetPoint" />
            <Array as="points">
              <mxPoint x="820" y="324" />
              <mxPoint x="560" y="324" />
              <mxPoint x="500" y="324" />
              <mxPoint x="500" y="387" />
            </Array>
          </mxGeometry>
        </mxCell>
        <mxCell id="IOZMn-XIOWkaTDg5bGpa-106" value="取消失败 和 暂停失败，接收到客户端响应的运行中数据时，更新成进行中状态" style="text;html=1;align=center;verticalAlign=middle;resizable=0;points=[];autosize=1;strokeColor=none;fillColor=none;fontColor=#000000;" parent="1" vertex="1">
          <mxGeometry x="441" y="291" width="430" height="20" as="geometry" />
        </mxCell>
      </root>
    </mxGraphModel>
  </diagram>
</mxfile>
